<mxfile modified="2022-05-02T20:18:00.056Z" host="app.diagrams.net" agent="5.0 (Windows NT 10.0; Win64; x64) AppleWebKit/537.36 (KHTML, like Gecko) Chrome/100.0.4896.127 Safari/537.36 Edg/100.0.1185.50" etag="m99kT0nkozq3bzLkoyui" compressed="false" version="17.5.0" type="google">
  <diagram name="Qualities/Addressed/Functionality" id="Rk6DG9-bEqPo-LxvNJbG">
    <mxGraphModel grid="1" page="1" gridSize="10" guides="1" tooltips="1" connect="1" arrows="1" fold="1" pageScale="1" pageWidth="827" pageHeight="1169" math="0" shadow="0">
      <root>
        <mxCell id="tGe2RUTvcF3WwCb3fpTQ-0" />
        <mxCell id="tGe2RUTvcF3WwCb3fpTQ-6" value="Diagram" parent="tGe2RUTvcF3WwCb3fpTQ-0" />
        <UserObject label="Completeness" id="tGe2RUTvcF3WwCb3fpTQ-11">
          <mxCell style="strokeColor=#bac8d3;html=1;fontColor=#2f5b7c;fontSize=12;align=left;fillColor=#E6E6E6;" parent="tGe2RUTvcF3WwCb3fpTQ-6" vertex="1">
            <mxGeometry x="140" y="300" width="540" height="20" as="geometry" />
          </mxCell>
        </UserObject>
        <UserObject label="Correctness" id="tGe2RUTvcF3WwCb3fpTQ-12">
          <mxCell style="strokeColor=#bac8d3;html=1;fontColor=#2f5b7c;fontSize=11;align=left;fillColor=#E6E6E6;" parent="tGe2RUTvcF3WwCb3fpTQ-6" vertex="1">
            <mxGeometry x="140" y="440" width="540" height="20" as="geometry" />
          </mxCell>
        </UserObject>
        <UserObject label="Appropriateness" id="tGe2RUTvcF3WwCb3fpTQ-13">
          <mxCell style="strokeColor=#bac8d3;html=1;fontColor=#2f5b7c;fontSize=11;align=left;fillColor=#E6E6E6;" parent="tGe2RUTvcF3WwCb3fpTQ-6" vertex="1">
            <mxGeometry x="140" y="620" width="540" height="20" as="geometry" />
          </mxCell>
        </UserObject>
        <UserObject label="Quality" id="tGe2RUTvcF3WwCb3fpTQ-14">
          <mxCell style="strokeColor=#bac8d3;html=1;fontColor=#2f5b7c;fontSize=12;align=left;horizontal=0;fillColor=#E6E6E6;" parent="tGe2RUTvcF3WwCb3fpTQ-6" vertex="1">
            <mxGeometry x="140" y="180" width="20" height="100" as="geometry" />
          </mxCell>
        </UserObject>
        <UserObject label="FeatureControl" id="tGe2RUTvcF3WwCb3fpTQ-15">
          <mxCell style="strokeColor=#bac8d3;html=1;fontColor=#2f5b7c;fontSize=12;align=left;horizontal=0;fontStyle=2" parent="tGe2RUTvcF3WwCb3fpTQ-6" vertex="1">
            <mxGeometry x="160" y="180" width="20" height="100" as="geometry" />
          </mxCell>
        </UserObject>
        <UserObject label="Desires of All Stakeholders are considered." id="tGe2RUTvcF3WwCb3fpTQ-17">
          <mxCell style="strokeColor=#bac8d3;html=1;fontColor=#2f5b7c;fontSize=11;align=left;fontStyle=2" parent="tGe2RUTvcF3WwCb3fpTQ-6" vertex="1">
            <mxGeometry x="160" y="320" width="520" height="20" as="geometry" />
          </mxCell>
        </UserObject>
        <UserObject label="&lt;font style=&quot;font-size: 11px;&quot;&gt;Tasks are prioritised by stakeholders concensus&lt;/font&gt;" id="tGe2RUTvcF3WwCb3fpTQ-21">
          <mxCell style="strokeColor=#bac8d3;html=1;fontColor=#2f5b7c;fontSize=11;align=left;fontStyle=2" parent="tGe2RUTvcF3WwCb3fpTQ-6" vertex="1">
            <mxGeometry x="160" y="640" width="520" height="20" as="geometry" />
          </mxCell>
        </UserObject>
        <UserObject label="Tasks are defined as SMART Objectives." id="tGe2RUTvcF3WwCb3fpTQ-22">
          <mxCell style="strokeColor=#bac8d3;html=1;fontColor=#2f5b7c;fontSize=11;align=left;fontStyle=2" parent="tGe2RUTvcF3WwCb3fpTQ-6" vertex="1">
            <mxGeometry x="160" y="460" width="520" height="20" as="geometry" />
          </mxCell>
        </UserObject>
        <UserObject label="Automated Tests run on every pipeline build." id="tGe2RUTvcF3WwCb3fpTQ-23">
          <mxCell style="strokeColor=#bac8d3;html=1;fontColor=#2f5b7c;fontSize=11;align=left;fontStyle=2" parent="tGe2RUTvcF3WwCb3fpTQ-6" vertex="1">
            <mxGeometry x="160" y="580" width="520" height="20" as="geometry" />
          </mxCell>
        </UserObject>
        <UserObject label="Includes Biz, Support &amp;amp; Operations functions.&amp;nbsp;" id="tGe2RUTvcF3WwCb3fpTQ-26">
          <mxCell style="strokeColor=#bac8d3;html=1;fontColor=#2f5b7c;fontSize=11;align=left;fontStyle=2" parent="tGe2RUTvcF3WwCb3fpTQ-6" vertex="1">
            <mxGeometry x="160" y="360" width="520" height="20" as="geometry" />
          </mxCell>
        </UserObject>
        <UserObject label="ISO-25010/Functionality" id="tGe2RUTvcF3WwCb3fpTQ-27">
          <mxCell style="strokeColor=#666666;html=1;fontColor=#333333;fontSize=12;align=left;fontStyle=1;fillColor=#CCCCCC;" parent="tGe2RUTvcF3WwCb3fpTQ-6" vertex="1">
            <mxGeometry x="120" y="280" width="560" height="20" as="geometry" />
          </mxCell>
        </UserObject>
        <UserObject label="Group" id="tGe2RUTvcF3WwCb3fpTQ-28">
          <mxCell style="strokeColor=#666666;html=1;fontColor=#333333;fontSize=12;align=left;horizontal=0;fillColor=#f5f5f5;" parent="tGe2RUTvcF3WwCb3fpTQ-6" vertex="1">
            <mxGeometry x="120" y="180" width="20" height="100" as="geometry" />
          </mxCell>
        </UserObject>
        <UserObject label="No Dev starts till Stories include Test defs." id="tGe2RUTvcF3WwCb3fpTQ-29">
          <mxCell style="strokeColor=#bac8d3;html=1;fontColor=#2f5b7c;fontSize=11;align=left;fontStyle=2" parent="tGe2RUTvcF3WwCb3fpTQ-6" vertex="1">
            <mxGeometry x="160" y="500" width="520" height="20" as="geometry" />
          </mxCell>
        </UserObject>
        <UserObject label="No Function dev starts till Test dev complete." id="tGe2RUTvcF3WwCb3fpTQ-30">
          <mxCell style="strokeColor=#bac8d3;html=1;fontColor=#2f5b7c;fontSize=11;align=left;fontStyle=2" parent="tGe2RUTvcF3WwCb3fpTQ-6" vertex="1">
            <mxGeometry x="160" y="540" width="520" height="20" as="geometry" />
          </mxCell>
        </UserObject>
        <UserObject label="Includes Security functions.&amp;nbsp;" id="tGe2RUTvcF3WwCb3fpTQ-31">
          <mxCell style="strokeColor=#bac8d3;html=1;fontColor=#2f5b7c;fontSize=11;align=left;fontStyle=2" parent="tGe2RUTvcF3WwCb3fpTQ-6" vertex="1">
            <mxGeometry x="160" y="400" width="520" height="20" as="geometry" />
          </mxCell>
        </UserObject>
        <UserObject label="&lt;font style=&quot;font-size: 11px;&quot;&gt;Deployment Tasks take precedence to other Tasks&lt;/font&gt;" id="tGe2RUTvcF3WwCb3fpTQ-34">
          <mxCell style="strokeColor=#bac8d3;html=1;fontColor=#2f5b7c;fontSize=11;align=left;fontStyle=2" parent="tGe2RUTvcF3WwCb3fpTQ-6" vertex="1">
            <mxGeometry x="160" y="680" width="520" height="20" as="geometry" />
          </mxCell>
        </UserObject>
        <UserObject label="&lt;font style=&quot;font-size: 11px;&quot;&gt;Security Tasks take precedence to other Tasks&lt;/font&gt;" id="tGe2RUTvcF3WwCb3fpTQ-35">
          <mxCell style="strokeColor=#bac8d3;html=1;fontColor=#2f5b7c;fontSize=11;align=left;fontStyle=2" parent="tGe2RUTvcF3WwCb3fpTQ-6" vertex="1">
            <mxGeometry x="160" y="720" width="520" height="20" as="geometry" />
          </mxCell>
        </UserObject>
        <UserObject label="Listening to biz only, one gets incomplete as well as poorly architected systems." id="tGe2RUTvcF3WwCb3fpTQ-59">
          <mxCell style="strokeColor=#bac8d3;html=1;fontColor=#2f5b7c;fontSize=11;align=left;fontStyle=2" parent="tGe2RUTvcF3WwCb3fpTQ-6" vertex="1">
            <mxGeometry x="180" y="340" width="500" height="20" as="geometry" />
          </mxCell>
        </UserObject>
        <UserObject label="&lt;font style=&quot;font-size: 10px&quot;&gt;Without, support is not useful, and system begins to fail.&lt;/font&gt;" id="tGe2RUTvcF3WwCb3fpTQ-60">
          <mxCell style="strokeColor=#bac8d3;html=1;fontColor=#2f5b7c;fontSize=11;align=left;fontStyle=2" parent="tGe2RUTvcF3WwCb3fpTQ-6" vertex="1">
            <mxGeometry x="180" y="380" width="500" height="20" as="geometry" />
          </mxCell>
        </UserObject>
        <UserObject label="Poor value effort maps lead to teams getting lost." id="tGe2RUTvcF3WwCb3fpTQ-61">
          <mxCell style="strokeColor=#bac8d3;html=1;fontColor=#2f5b7c;fontSize=11;align=left;fontStyle=2" parent="tGe2RUTvcF3WwCb3fpTQ-6" vertex="1">
            <mxGeometry x="180" y="480" width="500" height="20" as="geometry" />
          </mxCell>
        </UserObject>
        <UserObject label="It&#39;s harder to be Done when Done is not defined." id="tGe2RUTvcF3WwCb3fpTQ-62">
          <mxCell style="strokeColor=#bac8d3;html=1;fontColor=#2f5b7c;fontSize=11;align=left;fontStyle=2" parent="tGe2RUTvcF3WwCb3fpTQ-6" vertex="1">
            <mxGeometry x="180" y="520" width="500" height="20" as="geometry" />
          </mxCell>
        </UserObject>
        <UserObject label="No automated tests, Manual tests = bottleneck." id="tGe2RUTvcF3WwCb3fpTQ-63">
          <mxCell style="strokeColor=#bac8d3;html=1;fontColor=#2f5b7c;fontSize=11;align=left;fontStyle=2" parent="tGe2RUTvcF3WwCb3fpTQ-6" vertex="1">
            <mxGeometry x="180" y="560" width="500" height="20" as="geometry" />
          </mxCell>
        </UserObject>
        <UserObject label="Without, deployments have uncertain outcomes." id="tGe2RUTvcF3WwCb3fpTQ-64">
          <mxCell style="strokeColor=#bac8d3;html=1;fontColor=#2f5b7c;fontSize=11;align=left;fontStyle=2" parent="tGe2RUTvcF3WwCb3fpTQ-6" vertex="1">
            <mxGeometry x="180" y="600" width="500" height="20" as="geometry" />
          </mxCell>
        </UserObject>
        <UserObject label="Or Tasks are chosen by schedule, not value." id="tGe2RUTvcF3WwCb3fpTQ-65">
          <mxCell style="strokeColor=#bac8d3;html=1;fontColor=#2f5b7c;fontSize=11;align=left;fontStyle=2" parent="tGe2RUTvcF3WwCb3fpTQ-6" vertex="1">
            <mxGeometry x="180" y="660" width="500" height="20" as="geometry" />
          </mxCell>
        </UserObject>
        <UserObject label="Deployments will remain error-prone manual ops." id="tGe2RUTvcF3WwCb3fpTQ-66">
          <mxCell style="strokeColor=#bac8d3;html=1;fontColor=#2f5b7c;fontSize=11;align=left;fontStyle=2" parent="tGe2RUTvcF3WwCb3fpTQ-6" vertex="1">
            <mxGeometry x="180" y="700" width="500" height="20" as="geometry" />
          </mxCell>
        </UserObject>
        <UserObject label="Users will not trust again a hacked sys ." id="tGe2RUTvcF3WwCb3fpTQ-67">
          <mxCell style="strokeColor=#bac8d3;html=1;fontColor=#2f5b7c;fontSize=11;align=left;fontStyle=2" parent="tGe2RUTvcF3WwCb3fpTQ-6" vertex="1">
            <mxGeometry x="180" y="740" width="500" height="20" as="geometry" />
          </mxCell>
        </UserObject>
        <UserObject label="&lt;font style=&quot;font-size: 10px&quot;&gt;Without, Security will remain wary &amp;amp; hold up deployments.&lt;/font&gt;" id="tGe2RUTvcF3WwCb3fpTQ-68">
          <mxCell style="strokeColor=#bac8d3;html=1;fontColor=#2f5b7c;fontSize=11;align=left;fontStyle=2" parent="tGe2RUTvcF3WwCb3fpTQ-6" vertex="1">
            <mxGeometry x="180" y="420" width="500" height="20" as="geometry" />
          </mxCell>
        </UserObject>
        <UserObject label="Issue/Risk" id="NLUKOCabQKpV-Dze4Qcs-0">
          <mxCell style="strokeColor=#bac8d3;html=1;fontColor=#2f5b7c;fontSize=12;align=left;horizontal=0;fontStyle=2" parent="tGe2RUTvcF3WwCb3fpTQ-6" vertex="1">
            <mxGeometry x="180" y="180" width="20" height="100" as="geometry" />
          </mxCell>
        </UserObject>
        <UserObject label="Note" id="NLUKOCabQKpV-Dze4Qcs-1">
          <mxCell style="strokeColor=#bac8d3;html=1;fontColor=#2f5b7c;fontSize=12;align=left;horizontal=0;fontStyle=2" parent="tGe2RUTvcF3WwCb3fpTQ-6" vertex="1">
            <mxGeometry x="200" y="180" width="20" height="100" as="geometry" />
          </mxCell>
        </UserObject>
        <UserObject label="Infrastructure" id="rR9YJhHiQ0FGLTgv3090-0">
          <mxCell style="strokeColor=#bac8d3;html=1;fontColor=#2f5b7c;fontSize=12;align=left;horizontal=0;fontStyle=2" parent="tGe2RUTvcF3WwCb3fpTQ-6" vertex="1">
            <mxGeometry x="600" y="180" width="20" height="100" as="geometry" />
          </mxCell>
        </UserObject>
        <UserObject label="Info Svc" id="rR9YJhHiQ0FGLTgv3090-1">
          <mxCell style="strokeColor=#bac8d3;html=1;fontColor=#2f5b7c;fontSize=12;align=left;horizontal=0;fontStyle=2" parent="tGe2RUTvcF3WwCb3fpTQ-6" vertex="1">
            <mxGeometry x="640" y="180" width="20" height="100" as="geometry" />
          </mxCell>
        </UserObject>
        <UserObject label="Info Svc Client" id="rR9YJhHiQ0FGLTgv3090-2">
          <mxCell style="strokeColor=#bac8d3;html=1;fontColor=#2f5b7c;fontSize=12;align=left;horizontal=0;fontStyle=2" parent="tGe2RUTvcF3WwCb3fpTQ-6" vertex="1">
            <mxGeometry x="660" y="180" width="20" height="100" as="geometry" />
          </mxCell>
        </UserObject>
        <UserObject label="Delivery Service" id="rR9YJhHiQ0FGLTgv3090-3">
          <mxCell style="strokeColor=#bac8d3;html=1;fontColor=#2f5b7c;fontSize=12;align=left;horizontal=0;fontStyle=2" parent="tGe2RUTvcF3WwCb3fpTQ-6" vertex="1">
            <mxGeometry x="620" y="180" width="20" height="100" as="geometry" />
          </mxCell>
        </UserObject>
        <mxCell id="rR9YJhHiQ0FGLTgv3090-4" value="&lt;b&gt;X&lt;/b&gt;" style="text;html=1;strokeColor=#666666;fillColor=#f5f5f5;align=center;verticalAlign=middle;whiteSpace=wrap;rounded=0;fontSize=12;fontColor=#333333;" parent="tGe2RUTvcF3WwCb3fpTQ-6" vertex="1">
          <mxGeometry x="640" y="320" width="20" height="20" as="geometry" />
        </mxCell>
        <UserObject label="Processes" id="rR9YJhHiQ0FGLTgv3090-5">
          <mxCell style="strokeColor=#bac8d3;html=1;fontColor=#2f5b7c;fontSize=12;align=left;horizontal=0;fontStyle=2" parent="tGe2RUTvcF3WwCb3fpTQ-6" vertex="1">
            <mxGeometry x="580" y="180" width="20" height="100" as="geometry" />
          </mxCell>
        </UserObject>
        <mxCell id="rR9YJhHiQ0FGLTgv3090-6" value="&lt;b&gt;X&lt;/b&gt;" style="text;html=1;strokeColor=#666666;fillColor=#f5f5f5;align=center;verticalAlign=middle;whiteSpace=wrap;rounded=0;fontSize=12;fontColor=#333333;" parent="tGe2RUTvcF3WwCb3fpTQ-6" vertex="1">
          <mxGeometry x="620" y="320" width="20" height="20" as="geometry" />
        </mxCell>
        <mxCell id="rR9YJhHiQ0FGLTgv3090-7" value="&lt;b&gt;X&lt;/b&gt;" style="text;html=1;strokeColor=#666666;fillColor=#f5f5f5;align=center;verticalAlign=middle;whiteSpace=wrap;rounded=0;fontSize=12;fontColor=#333333;" parent="tGe2RUTvcF3WwCb3fpTQ-6" vertex="1">
          <mxGeometry x="600" y="320" width="20" height="20" as="geometry" />
        </mxCell>
        <mxCell id="rR9YJhHiQ0FGLTgv3090-8" value="&lt;b&gt;X&lt;/b&gt;" style="text;html=1;strokeColor=#666666;fillColor=#f5f5f5;align=center;verticalAlign=middle;whiteSpace=wrap;rounded=0;fontSize=12;fontColor=#333333;" parent="tGe2RUTvcF3WwCb3fpTQ-6" vertex="1">
          <mxGeometry x="600" y="400" width="20" height="20" as="geometry" />
        </mxCell>
        <mxCell id="rR9YJhHiQ0FGLTgv3090-9" value="&lt;b&gt;X&lt;/b&gt;" style="text;html=1;strokeColor=#666666;fillColor=#f5f5f5;align=center;verticalAlign=middle;whiteSpace=wrap;rounded=0;fontSize=12;fontColor=#333333;" parent="tGe2RUTvcF3WwCb3fpTQ-6" vertex="1">
          <mxGeometry x="580" y="400" width="20" height="20" as="geometry" />
        </mxCell>
        <mxCell id="fkWaNnH7V_RR23t6pb40-0" value="Title/Diagram" parent="tGe2RUTvcF3WwCb3fpTQ-0" />
        <mxCell id="fkWaNnH7V_RR23t6pb40-1" value="&lt;font style=&quot;font-size: 12px ; font-weight: normal&quot;&gt;&lt;i style=&quot;font-size: 12px&quot;&gt;Diagram: Base&amp;nbsp;&lt;/i&gt;&lt;i&gt;System&amp;nbsp;&lt;/i&gt;&lt;i style=&quot;font-size: 12px&quot;&gt;Logical Module -&amp;nbsp;Qualities - ISO-25010 Qualities Addressed - Functionality&lt;/i&gt;&lt;/font&gt;" style="text;strokeColor=none;fillColor=none;html=1;fontSize=12;fontStyle=1;verticalAlign=middle;align=left;shadow=0;glass=0;comic=0;opacity=30;fontColor=#808080;" parent="fkWaNnH7V_RR23t6pb40-0" vertex="1">
          <mxGeometry x="120" y="780" width="520" height="20" as="geometry" />
        </mxCell>
        <mxCell id="tGe2RUTvcF3WwCb3fpTQ-1" value="About" parent="tGe2RUTvcF3WwCb3fpTQ-0" />
      </root>
    </mxGraphModel>
  </diagram>
</mxfile>
